<svg width="1134" height="345" viewBox="0 0 1134 345" fill="none" xmlns="http://www.w3.org/2000/svg">
<path d="M189.882 127.581V58.1965H177.879V44.1439H222.891L242.799 117.993L263.659 44.1439H308.598V58.1965H296.009V127.581H308.598V142H266.22V127.581H277.272V58.1965L252.241 142H231.382L206.863 58.1965V127.581H217.183V142H177.879V127.581H189.882ZM345.632 62.222H324.919V42.4605H345.632V62.222ZM325.798 128.094V85.7895H316.356V72.3224H345.632V128.094H355.367V142H315.917V128.094H325.798ZM362.174 142V128.094H371.615V85.7895H362.174V72.3224H390.864V83.3742C394.036 78.9339 397.598 75.6891 401.55 73.6398C405.551 71.5417 410.284 70.4926 415.749 70.4926C423.995 70.4926 430.07 72.6639 433.974 77.0066C437.877 81.3004 439.829 88.034 439.829 97.2072V128.094H449.124V142H409.455V128.094H420.067V97.2072C420.067 93.4013 418.994 90.4005 416.847 88.2048C414.749 86.009 411.87 84.9112 408.211 84.9112C403.185 84.9112 399.11 86.5946 395.988 89.9613C392.865 93.2793 391.303 97.6464 391.303 103.062V128.094H401.916V142H362.174ZM476.717 106.942C476.717 113.626 478.23 118.945 481.255 122.897C484.329 126.85 488.403 128.826 493.478 128.826C498.552 128.826 502.627 126.85 505.701 122.897C508.775 118.896 510.312 113.578 510.312 106.942C510.312 100.159 508.799 94.8163 505.774 90.9128C502.749 87.0093 498.65 85.0576 493.478 85.0576C488.11 85.0576 483.963 86.9605 481.035 90.7664C478.157 94.5236 476.717 99.9153 476.717 106.942ZM510.165 57.7574H500.577V44.1439H529.78V128.094H539.808V142H512.068V128.094C508.945 133.461 505.286 137.438 501.09 140.024C496.942 142.561 492.063 143.83 486.451 143.83C477.425 143.83 470.13 140.463 464.567 133.729C459.054 126.996 456.297 118.067 456.297 106.942C456.297 95.5726 459.005 86.7166 464.421 80.3734C469.886 73.9814 477.425 70.7854 487.037 70.7854C491.77 70.7854 496.064 71.7612 499.919 73.713C503.822 75.6647 507.238 78.5924 510.165 82.4959V57.7574Z" fill="#F7A500"/>
<path d="M680.846 108.405C679.529 120.458 675.381 129.436 668.404 135.34C661.426 141.195 651.497 144.123 638.615 144.123C622.562 144.123 610.168 139.633 601.434 130.655C592.749 121.677 588.406 108.918 588.406 92.3766C588.406 77.0066 592.505 64.8081 600.702 55.7812C608.9 46.7056 619.878 42.1678 633.638 42.1678C640.372 42.1678 646.154 43.3144 650.984 45.6077C655.815 47.8522 659.645 51.1946 662.475 55.6349V44.8758H679.968V80.227H661.377C659.962 72.0296 657.328 66.0036 653.473 62.1488C649.667 58.2453 644.47 56.2936 637.883 56.2936C629.686 56.2936 623.099 59.6604 618.122 66.3939C613.194 73.0787 610.729 82.0323 610.729 93.2549C610.729 104.478 613.145 113.334 617.975 119.823C622.855 126.313 629.491 129.558 637.883 129.558C644.031 129.558 648.935 127.825 652.595 124.361C656.303 120.848 658.84 115.529 660.206 108.405H680.846ZM736.252 110.967C734.641 110.821 733.08 110.723 731.567 110.674C730.104 110.577 728.713 110.528 727.396 110.528C721.345 110.528 716.759 111.333 713.636 112.943C710.562 114.553 709.025 116.944 709.025 120.116C709.025 123.141 709.927 125.483 711.733 127.142C713.538 128.752 716.124 129.558 719.491 129.558C724.468 129.558 728.42 127.923 731.348 124.654C734.324 121.385 735.959 116.822 736.252 110.967ZM763.552 142H736.252V132.558C733.47 136.364 730.201 139.194 726.444 141.049C722.736 142.903 718.369 143.83 713.343 143.83C705.926 143.83 699.949 141.78 695.411 137.682C690.873 133.534 688.604 128.118 688.604 121.433C688.604 114.017 691.166 108.283 696.29 104.234C701.462 100.135 708.756 98.0855 718.174 98.0855H736.252V92.6694C736.252 90.0345 735.007 87.8876 732.519 86.2286C730.079 84.5208 726.834 83.6669 722.785 83.6669C718.979 83.6669 716.002 84.5452 713.855 86.3018C711.757 88.0096 710.586 90.4737 710.342 93.6941L691.898 93.7673C692.484 85.6187 695.192 79.7146 700.022 76.0551C704.902 72.3468 712.391 70.4926 722.492 70.4926C733.812 70.4926 742.034 72.4443 747.157 76.3479C752.28 80.2514 754.842 86.497 754.842 95.0847V128.094H763.552V142ZM780.605 128.094V85.7895H771.164V72.3224H800.294V84.9112C802.977 79.8366 806.076 76.1039 809.589 73.713C813.151 71.2733 817.25 70.0535 821.885 70.0535C822.958 70.0535 824.129 70.151 825.398 70.3462C826.667 70.4926 828.179 70.7366 829.936 71.0781V87.6192C828.667 87.3753 827.374 87.2045 826.057 87.1069C824.739 87.0093 823.398 86.9605 822.031 86.9605C814.566 86.9605 809.077 89.1075 805.563 93.4013C802.05 97.6464 800.294 104.307 800.294 113.382V128.094H810.174V142H770.725V128.094H780.605ZM855.553 99.9153H885.707V98.3783C885.707 94.2308 884.292 90.864 881.462 88.278C878.681 85.6431 875.095 84.3257 870.703 84.3257C866.214 84.3257 862.555 85.7651 859.725 88.6439C856.943 91.474 855.553 95.2311 855.553 99.9153ZM886 120.262H904.444C902.785 128.167 899.272 134.071 893.905 137.975C888.586 141.878 881.291 143.83 872.021 143.83C860.408 143.83 851.381 140.634 844.94 134.242C838.548 127.801 835.352 118.799 835.352 107.234C835.352 95.8654 838.499 86.9117 844.794 80.3734C851.088 73.7862 859.676 70.4926 870.557 70.4926C881.682 70.4926 890.245 73.591 896.247 79.7878C902.297 85.9846 905.322 94.8407 905.322 106.356C905.322 107.039 905.298 107.844 905.249 108.771C905.2 109.65 905.127 110.918 905.03 112.577L855.406 112.65C855.406 118.115 856.748 122.336 859.432 125.312C862.164 128.24 866.068 129.704 871.142 129.704C874.851 129.704 877.925 128.923 880.364 127.362C882.804 125.8 884.683 123.434 886 120.262Z" fill="#3CCA97"/>
<path d="M266.575 172.5L249.4 225H236.35L224.8 189.45L212.875 225H199.9L182.65 172.5H195.25L207.1 209.4L219.475 172.5H230.725L242.725 209.7L254.95 172.5H266.575ZM307.93 204.975C307.93 205.125 307.855 206.175 307.705 208.125H277.18C277.73 210.625 279.03 212.6 281.08 214.05C283.13 215.5 285.68 216.225 288.73 216.225C290.83 216.225 292.68 215.925 294.28 215.325C295.93 214.675 297.455 213.675 298.855 212.325L305.08 219.075C301.28 223.425 295.73 225.6 288.43 225.6C283.88 225.6 279.855 224.725 276.355 222.975C272.855 221.175 270.155 218.7 268.255 215.55C266.355 212.4 265.405 208.825 265.405 204.825C265.405 200.875 266.33 197.325 268.18 194.175C270.08 190.975 272.655 188.5 275.905 186.75C279.205 184.95 282.88 184.05 286.93 184.05C290.88 184.05 294.455 184.9 297.655 186.6C300.855 188.3 303.355 190.75 305.155 193.95C307.005 197.1 307.93 200.775 307.93 204.975ZM287.005 192.9C284.355 192.9 282.13 193.65 280.33 195.15C278.53 196.65 277.43 198.7 277.03 201.3H296.905C296.505 198.75 295.405 196.725 293.605 195.225C291.805 193.675 289.605 192.9 287.005 192.9ZM314.594 169.35H326.294V225H314.594V169.35ZM336.028 169.35H347.728V225H336.028V169.35ZM381.987 184.05C386.987 184.05 391.012 185.55 394.062 188.55C397.162 191.55 398.712 196 398.712 201.9V225H387.012V203.7C387.012 200.5 386.312 198.125 384.912 196.575C383.512 194.975 381.487 194.175 378.837 194.175C375.887 194.175 373.537 195.1 371.787 196.95C370.037 198.75 369.162 201.45 369.162 205.05V225H357.462V184.65H368.637V189.375C370.187 187.675 372.112 186.375 374.412 185.475C376.712 184.525 379.237 184.05 381.987 184.05ZM448.156 204.975C448.156 205.125 448.081 206.175 447.931 208.125H417.406C417.956 210.625 419.256 212.6 421.306 214.05C423.356 215.5 425.906 216.225 428.956 216.225C431.056 216.225 432.906 215.925 434.506 215.325C436.156 214.675 437.681 213.675 439.081 212.325L445.306 219.075C441.506 223.425 435.956 225.6 428.656 225.6C424.106 225.6 420.081 224.725 416.581 222.975C413.081 221.175 410.381 218.7 408.481 215.55C406.581 212.4 405.631 208.825 405.631 204.825C405.631 200.875 406.556 197.325 408.406 194.175C410.306 190.975 412.881 188.5 416.131 186.75C419.431 184.95 423.106 184.05 427.156 184.05C431.106 184.05 434.681 184.9 437.881 186.6C441.081 188.3 443.581 190.75 445.381 193.95C447.231 197.1 448.156 200.775 448.156 204.975ZM427.231 192.9C424.581 192.9 422.356 193.65 420.556 195.15C418.756 196.65 417.656 198.7 417.256 201.3H437.131C436.731 198.75 435.631 196.725 433.831 195.225C432.031 193.675 429.831 192.9 427.231 192.9ZM468.396 225.6C465.046 225.6 461.771 225.2 458.571 224.4C455.371 223.55 452.821 222.5 450.921 221.25L454.821 212.85C456.621 214 458.796 214.95 461.346 215.7C463.896 216.4 466.396 216.75 468.846 216.75C473.796 216.75 476.271 215.525 476.271 213.075C476.271 211.925 475.596 211.1 474.246 210.6C472.896 210.1 470.821 209.675 468.021 209.325C464.721 208.825 461.996 208.25 459.846 207.6C457.696 206.95 455.821 205.8 454.221 204.15C452.671 202.5 451.896 200.15 451.896 197.1C451.896 194.55 452.621 192.3 454.071 190.35C455.571 188.35 457.721 186.8 460.521 185.7C463.371 184.6 466.721 184.05 470.571 184.05C473.421 184.05 476.246 184.375 479.046 185.025C481.896 185.625 484.246 186.475 486.096 187.575L482.196 195.9C478.646 193.9 474.771 192.9 470.571 192.9C468.071 192.9 466.196 193.25 464.946 193.95C463.696 194.65 463.071 195.55 463.071 196.65C463.071 197.9 463.746 198.775 465.096 199.275C466.446 199.775 468.596 200.25 471.546 200.7C474.846 201.25 477.546 201.85 479.646 202.5C481.746 203.1 483.571 204.225 485.121 205.875C486.671 207.525 487.446 209.825 487.446 212.775C487.446 215.275 486.696 217.5 485.196 219.45C483.696 221.4 481.496 222.925 478.596 224.025C475.746 225.075 472.346 225.6 468.396 225.6ZM507.115 225.6C503.765 225.6 500.49 225.2 497.29 224.4C494.09 223.55 491.54 222.5 489.64 221.25L493.54 212.85C495.34 214 497.515 214.95 500.065 215.7C502.615 216.4 505.115 216.75 507.565 216.75C512.515 216.75 514.99 215.525 514.99 213.075C514.99 211.925 514.315 211.1 512.965 210.6C511.615 210.1 509.54 209.675 506.74 209.325C503.44 208.825 500.715 208.25 498.565 207.6C496.415 206.95 494.54 205.8 492.94 204.15C491.39 202.5 490.615 200.15 490.615 197.1C490.615 194.55 491.34 192.3 492.79 190.35C494.29 188.35 496.44 186.8 499.24 185.7C502.09 184.6 505.44 184.05 509.29 184.05C512.14 184.05 514.965 184.375 517.765 185.025C520.615 185.625 522.965 186.475 524.815 187.575L520.915 195.9C517.365 193.9 513.49 192.9 509.29 192.9C506.79 192.9 504.915 193.25 503.665 193.95C502.415 194.65 501.79 195.55 501.79 196.65C501.79 197.9 502.465 198.775 503.815 199.275C505.165 199.775 507.315 200.25 510.265 200.7C513.565 201.25 516.265 201.85 518.365 202.5C520.465 203.1 522.29 204.225 523.84 205.875C525.39 207.525 526.165 209.825 526.165 212.775C526.165 215.275 525.415 217.5 523.915 219.45C522.415 221.4 520.215 222.925 517.315 224.025C514.465 225.075 511.065 225.6 507.115 225.6ZM570.449 225.9C566.299 225.9 562.274 225.35 558.374 224.25C554.524 223.1 551.424 221.625 549.074 219.825L553.199 210.675C555.449 212.325 558.124 213.65 561.224 214.65C564.324 215.65 567.424 216.15 570.524 216.15C573.974 216.15 576.524 215.65 578.174 214.65C579.824 213.6 580.649 212.225 580.649 210.525C580.649 209.275 580.149 208.25 579.149 207.45C578.199 206.6 576.949 205.925 575.399 205.425C573.899 204.925 571.849 204.375 569.249 203.775C565.249 202.825 561.974 201.875 559.424 200.925C556.874 199.975 554.674 198.45 552.824 196.35C551.024 194.25 550.124 191.45 550.124 187.95C550.124 184.9 550.949 182.15 552.599 179.7C554.249 177.2 556.724 175.225 560.024 173.775C563.374 172.325 567.449 171.6 572.249 171.6C575.599 171.6 578.874 172 582.074 172.8C585.274 173.6 588.074 174.75 590.474 176.25L586.724 185.475C581.874 182.725 577.024 181.35 572.174 181.35C568.774 181.35 566.249 181.9 564.599 183C562.999 184.1 562.199 185.55 562.199 187.35C562.199 189.15 563.124 190.5 564.974 191.4C566.874 192.25 569.749 193.1 573.599 193.95C577.599 194.9 580.874 195.85 583.424 196.8C585.974 197.75 588.149 199.25 589.949 201.3C591.799 203.35 592.724 206.125 592.724 209.625C592.724 212.625 591.874 215.375 590.174 217.875C588.524 220.325 586.024 222.275 582.674 223.725C579.324 225.175 575.249 225.9 570.449 225.9ZM618.276 225.6C614.026 225.6 610.201 224.725 606.801 222.975C603.451 221.175 600.826 218.7 598.926 215.55C597.026 212.4 596.076 208.825 596.076 204.825C596.076 200.825 597.026 197.25 598.926 194.1C600.826 190.95 603.451 188.5 606.801 186.75C610.201 184.95 614.026 184.05 618.276 184.05C622.526 184.05 626.326 184.95 629.676 186.75C633.026 188.5 635.651 190.95 637.551 194.1C639.451 197.25 640.401 200.825 640.401 204.825C640.401 208.825 639.451 212.4 637.551 215.55C635.651 218.7 633.026 221.175 629.676 222.975C626.326 224.725 622.526 225.6 618.276 225.6ZM618.276 216C621.276 216 623.726 215 625.626 213C627.576 210.95 628.551 208.225 628.551 204.825C628.551 201.425 627.576 198.725 625.626 196.725C623.726 194.675 621.276 193.65 618.276 193.65C615.276 193.65 612.801 194.675 610.851 196.725C608.901 198.725 607.926 201.425 607.926 204.825C607.926 208.225 608.901 210.95 610.851 213C612.801 215 615.276 216 618.276 216ZM647.096 169.35H658.796V225H647.096V169.35ZM709.18 184.65V225H698.08V220.2C696.53 221.95 694.68 223.3 692.53 224.25C690.38 225.15 688.055 225.6 685.555 225.6C680.255 225.6 676.055 224.075 672.955 221.025C669.855 217.975 668.305 213.45 668.305 207.45V184.65H680.005V205.725C680.005 212.225 682.73 215.475 688.18 215.475C690.98 215.475 693.23 214.575 694.93 212.775C696.63 210.925 697.48 208.2 697.48 204.6V184.65H709.18ZM744.919 223.05C743.769 223.9 742.344 224.55 740.644 225C738.994 225.4 737.244 225.6 735.394 225.6C730.594 225.6 726.869 224.375 724.219 221.925C721.619 219.475 720.319 215.875 720.319 211.125V194.55H714.094V185.55H720.319V175.725H732.019V185.55H742.069V194.55H732.019V210.975C732.019 212.675 732.444 214 733.294 214.95C734.194 215.85 735.444 216.3 737.044 216.3C738.894 216.3 740.469 215.8 741.769 214.8L744.919 223.05ZM750.362 184.65H762.062V225H750.362V184.65ZM756.212 179.025C754.062 179.025 752.312 178.4 750.962 177.15C749.612 175.9 748.937 174.35 748.937 172.5C748.937 170.65 749.612 169.1 750.962 167.85C752.312 166.6 754.062 165.975 756.212 165.975C758.362 165.975 760.112 166.575 761.462 167.775C762.812 168.975 763.487 170.475 763.487 172.275C763.487 174.225 762.812 175.85 761.462 177.15C760.112 178.4 758.362 179.025 756.212 179.025ZM790.996 225.6C786.746 225.6 782.921 224.725 779.521 222.975C776.171 221.175 773.546 218.7 771.646 215.55C769.746 212.4 768.796 208.825 768.796 204.825C768.796 200.825 769.746 197.25 771.646 194.1C773.546 190.95 776.171 188.5 779.521 186.75C782.921 184.95 786.746 184.05 790.996 184.05C795.246 184.05 799.046 184.95 802.396 186.75C805.746 188.5 808.371 190.95 810.271 194.1C812.171 197.25 813.121 200.825 813.121 204.825C813.121 208.825 812.171 212.4 810.271 215.55C808.371 218.7 805.746 221.175 802.396 222.975C799.046 224.725 795.246 225.6 790.996 225.6ZM790.996 216C793.996 216 796.446 215 798.346 213C800.296 210.95 801.271 208.225 801.271 204.825C801.271 201.425 800.296 198.725 798.346 196.725C796.446 194.675 793.996 193.65 790.996 193.65C787.996 193.65 785.521 194.675 783.571 196.725C781.621 198.725 780.646 201.425 780.646 204.825C780.646 208.225 781.621 210.95 783.571 213C785.521 215 787.996 216 790.996 216ZM844.341 184.05C849.341 184.05 853.366 185.55 856.416 188.55C859.516 191.55 861.066 196 861.066 201.9V225H849.366V203.7C849.366 200.5 848.666 198.125 847.266 196.575C845.866 194.975 843.841 194.175 841.191 194.175C838.241 194.175 835.891 195.1 834.141 196.95C832.391 198.75 831.516 201.45 831.516 205.05V225H819.816V184.65H830.991V189.375C832.541 187.675 834.466 186.375 836.766 185.475C839.066 184.525 841.591 184.05 844.341 184.05ZM884.121 225.6C880.771 225.6 877.496 225.2 874.296 224.4C871.096 223.55 868.546 222.5 866.646 221.25L870.546 212.85C872.346 214 874.521 214.95 877.071 215.7C879.621 216.4 882.121 216.75 884.571 216.75C889.521 216.75 891.996 215.525 891.996 213.075C891.996 211.925 891.321 211.1 889.971 210.6C888.621 210.1 886.546 209.675 883.746 209.325C880.446 208.825 877.721 208.25 875.571 207.6C873.421 206.95 871.546 205.8 869.946 204.15C868.396 202.5 867.621 200.15 867.621 197.1C867.621 194.55 868.346 192.3 869.796 190.35C871.296 188.35 873.446 186.8 876.246 185.7C879.096 184.6 882.446 184.05 886.296 184.05C889.146 184.05 891.971 184.375 894.771 185.025C897.621 185.625 899.971 186.475 901.821 187.575L897.921 195.9C894.371 193.9 890.496 192.9 886.296 192.9C883.796 192.9 881.921 193.25 880.671 193.95C879.421 194.65 878.796 195.55 878.796 196.65C878.796 197.9 879.471 198.775 880.821 199.275C882.171 199.775 884.321 200.25 887.271 200.7C890.571 201.25 893.271 201.85 895.371 202.5C897.471 203.1 899.296 204.225 900.846 205.875C902.396 207.525 903.171 209.825 903.171 212.775C903.171 215.275 902.421 217.5 900.921 219.45C899.421 221.4 897.221 222.925 894.321 224.025C891.471 225.075 888.071 225.6 884.121 225.6Z" fill="#F7A500"/>
<path d="M85.0676 217.664L87.7301 189.148C87.7301 189.148 113.694 161.313 115.034 159.532C116.374 157.75 130.348 115.212 130.348 115.212C130.348 115.212 131.009 78.0167 123.248 65.5485C115.487 53.0803 97.0577 37.4164 97.0577 37.4164C62.4274 25.1752 17.8082 38.307 3.83431 77.7373C-10.1396 117.168 18.1911 145.108 23.3595 152.127C31.3471 162.972 33.1222 177.291 28.0233 193.339C22.9071 209.37 9.82065 224.964 9.82065 224.964C36.2371 219.55 57.3808 181.918 52.0557 158.466C46.7306 134.997 25.3608 133.425 15.8244 105.206C5.43531 74.5591 27.362 59.0175 27.362 59.0175C16.4161 78.4009 17.495 100.683 38.0296 117.045C41.4926 119.752 58.5989 131.609 80.6301 120.363C105.776 107.511 97.4928 79.3089 97.4928 79.3089C97.4928 79.3089 110.736 100.858 94.8302 123.489C86.3032 135.608 72.5206 140.707 65.6816 142.593C72.6947 152.704 77.4455 165.87 75.5312 183.385C73.5822 201.232 67.2478 215.132 60.9134 224.981L85.0676 217.664ZM57.8854 107.336C49.602 107.336 42.8848 100.596 42.8848 92.2836C42.8848 83.9714 49.602 77.2309 57.8854 77.2309C66.1689 77.2309 72.8861 83.9714 72.8861 92.2836C72.8861 100.596 66.1689 107.336 57.8854 107.336Z" fill="url(#paint0_linear_303_7)"/>
<path d="M138.336 100.893C138.336 100.893 140.998 96.7366 140.563 91.9868C140.372 89.8913 139.571 85.5781 137.709 80.1647C133.063 66.5789 121.821 46.1827 97.0577 37.4165C85.0676 33.1731 71.8768 31.9857 59.1732 33.8716C116.74 32.9985 132.871 93.9077 115.4 123.594C100.904 148.251 65.6816 142.558 65.6816 142.558C72.6947 152.669 77.4455 165.836 75.5313 183.351C73.5822 201.197 67.2478 215.097 60.9134 224.946H115.26C115.26 224.946 100.312 214.783 99.1286 202.158C97.9452 189.532 106.681 185.533 118.95 185.533C131.218 185.533 141.799 183.892 140.581 175.143C139.362 166.377 136.021 162.151 139.745 159.182C143.469 156.214 139.415 152.721 141.085 151.604C142.756 150.486 142.199 148.233 140.633 144.182C139.623 141.528 143.313 141.737 147.889 139.205C153.493 136.114 151.144 132.028 144.896 122.389C138.614 112.715 135.534 108.175 138.336 100.893Z" fill="url(#paint1_linear_303_7)"/>
<defs>
<linearGradient id="paint0_linear_303_7" x1="13.18" y1="41.8065" x2="77.9573" y2="166.462" gradientUnits="userSpaceOnUse">
<stop stop-color="#42E49B"/>
<stop offset="1" stop-color="#2E838E"/>
</linearGradient>
<linearGradient id="paint1_linear_303_7" x1="64.4537" y1="38.0639" x2="122.134" y2="226.101" gradientUnits="userSpaceOnUse">
<stop stop-color="#FDDF00"/>
<stop offset="1" stop-color="#F27900"/>
</linearGradient>
</defs>
</svg>
